<svg width="24" height="19" viewBox="0 0 24 19" fill="none" xmlns="http://www.w3.org/2000/svg">
<path d="M6.25221 0.813528C10.17 0.472965 14.1099 0.472964 18.0276 0.813528L19.9152 0.977608C21.1717 1.08684 22.2479 1.83632 22.8055 2.90839C22.8769 3.04554 22.8234 3.2116 22.6919 3.29297L14.8606 8.14096C13.181 9.18072 11.0631 9.20253 9.36245 8.19759L1.47875 3.53904C1.35138 3.46378 1.29291 3.30885 1.35032 3.17249C1.86044 1.9607 3.00732 1.0956 4.36468 0.977608L6.25221 0.813528Z" fill="#141416"/>
<path d="M1.3439 5.63695C1.14897 5.52176 0.900254 5.64572 0.877532 5.87099C0.560406 9.0151 0.637159 12.189 1.10779 15.3187C1.3559 16.9686 2.70247 18.2335 4.36468 18.378L6.25221 18.542C10.17 18.8826 14.1099 18.8826 18.0277 18.542L19.9152 18.378C21.5774 18.2335 22.924 16.9686 23.1721 15.3187C23.6564 12.0978 23.7236 8.83008 23.3736 5.5962C23.349 5.36933 23.0961 5.24766 22.9021 5.36777L15.8474 9.73499C13.5749 11.1417 10.7096 11.1712 8.40871 9.81161L1.3439 5.63695Z" fill="#141416"/>
</svg>
